<svg xmlns="http://www.w3.org/2000/svg" xmlns:xlink="http://www.w3.org/1999/xlink" width="35" height="35" viewBox="0 0 292 266">
  <defs>
    <clipPath id="clip-Web_1920_2">
      <rect width="292" height="266"/>
    </clipPath>
  </defs>
  <g id="Web_1920_2" data-name="Web 1920 – 2" clip-path="url(#clip-Web_1920_2)">
    <g id="Groupe_2" data-name="Groupe 2" transform="translate(20.669 8.276)">
      <g id="Groupe_16786" data-name="Groupe 16786" transform="translate(0 0)">
        <g id="Groupe_16783" data-name="Groupe 16783" transform="translate(0 0)">
          <circle id="Ellipse_890" data-name="Ellipse 890" cx="125" cy="125" r="125" transform="translate(0.331 -0.276)" fill="#59049D" stroke="#59049D"/>
        </g>
        <g id="Groupe_16782" data-name="Groupe 16782" transform="translate(59.728 35.683)">
          <path id="Tracé_13692" data-name="Tracé 13692" d="M2469.106,1614.805v-60.946l-31.649-30.666-83.546,1.164s-8.144,1.628-8.842,8.611,0,141.2,0,141.2-.235,10.995,8.376,11.228,63.335,0,63.335,0l48.137-19.549,4.187-45.146" transform="translate(-2343.006 -1521.246)" fill="#fff"/>
          <path id="Tracé_13693" data-name="Tracé 13693" d="M2471.113,1860.621l-9.346-4.764c-4.955,4.761-11.749,3.681-15.052-2.516-6.842,1.127-9.866-.511-12.264-6.7-5.116.169-8.516-2.145-10.008-7.281-4.553.233-8.03-1.53-9.653-6.014s.843-7.847,3.8-11.522c-1.015,0-1.678-.193-2.138.031a10.507,10.507,0,0,1-10.656-.564c-1.6-.961-3.229-1.871-4.806-2.866a5.639,5.639,0,0,1-2.014-8.036q11.036-18.757,22.167-37.457a5.688,5.688,0,0,1,8.158-2.08q2.666,1.5,5.263,3.117a9.962,9.962,0,0,1,5.014,9.2,2.063,2.063,0,0,0,1.255,2.175,8.4,8.4,0,0,0,7.085.6c1.7-.61,3.384-1.255,5.046-1.955a13.343,13.343,0,0,1,12.573.825,4.282,4.282,0,0,0,3.761.389c2.171-.661,4.425-1.037,6.6-1.7a13.488,13.488,0,0,1,9.542.655,32.541,32.541,0,0,0,5.229,1.941,28.656,28.656,0,0,0,4.931.284c-.939-4.287-.6-8.032,2.456-10.607a42.4,42.4,0,0,1,8.847-5.494c2.513-1.219,5.23.188,6.876,2.961q8.791,14.806,17.547,29.628c1.426,2.407,2.872,4.8,4.269,7.223,1.939,3.351,1.124,6.519-2.18,8.531-1.693,1.031-3.392,2.049-5.115,3.022a8.772,8.772,0,0,1-7.064,1.134c-2.306-.74-3.731.448-5.4,1.563,2.407,3.668,2.788,7.379.125,10.944-2.515,3.367-5.995,4.184-10.087,3.085-1.489,5.561-5.021,8.292-11.036,7.646a9.033,9.033,0,0,1-13.378,6.907c-.762,4.14-3.368,6.515-7.2,7.7Zm4.921-54.246c-2.079,4.671-5.346,7.421-10.33,7.78-3.8.274-6.35-2.1-6.416-5.935-.04-2.391.027-4.784-.016-7.175-.073-4.223-.2-8.449,2.969-11.908a6.813,6.813,0,0,0-5.743-.742c-1.831.577-3.64,1.239-5.407,1.984a13.837,13.837,0,0,1-8.528,1.1,48.129,48.129,0,0,1-5.308-1.828c-5.427,9.167-10.883,18.381-16.6,28.041a13.7,13.7,0,0,0,2.168-.019,30,30,0,0,1,3.373-.789c3.5-.246,6.117,1.425,8.1,4.184,5.906-4.672,13.11-2.257,15.125,4.73,7.381-.238,11.359,5.579,9.759,11.888,6.631,2.141,8.636,7.931,5.859,13.706,1.877,1.116,3.743,2.284,5.667,3.352a3.511,3.511,0,0,0,5-1.2,3.574,3.574,0,0,0-1.466-4.952c-1.179-.752-2.4-1.436-3.6-2.151-2.415-1.436-3.1-2.812-2.173-4.365s2.461-1.592,4.877-.16c3.561,2.107,7.1,4.249,10.688,6.308a3.518,3.518,0,0,0,4.912-1.109,3.6,3.6,0,0,0-1.283-5.007c-.433-.291-.9-.536-1.351-.8q-5.64-3.344-11.279-6.685c-1.186-.7-1.917-1.792-1.377-3.05a3.836,3.836,0,0,1,2.185-1.9c.665-.2,1.667.324,2.391.746,5.437,3.169,10.836,6.4,16.258,9.594,2.266,1.334,4.393.963,5.487-.9,1.112-1.9.431-3.86-1.867-5.232q-7.36-4.385-14.736-8.735c-.8-.475-1.636-.911-2.384-1.459a2.468,2.468,0,0,1-.828-3.388,2.552,2.552,0,0,1,3.451-1.1,13.966,13.966,0,0,1,1.365.776c7.118,4.215,14.222,8.456,21.375,12.616a5.958,5.958,0,0,0,3.088.869,3.1,3.1,0,0,0,2.951-2.771c.339-1.851-.545-3.108-2.107-4.029q-9.868-5.81-19.705-11.661C2485.772,1812.149,2480.972,1809.3,2476.033,1806.375Zm38.639,12.374c-.381-.665-.661-1.17-.953-1.667q-3.792-6.395-7.576-12.786c-.723-1.226-.9-2.622.306-3.464a4.406,4.406,0,0,1,3.007-.4c.569.1,1.089.982,1.467,1.61,2.552,4.246,5.042,8.529,7.586,12.78,1.81,3.031,4.568,3.744,7.6,2,1.313-.753,2.56-1.638,3.92-2.293s1.338-1.326.612-2.541q-10.574-17.713-21.049-35.485c-.263-.441-.568-.858-.946-1.423-1.775,1.04-3.478,2.019-5.165,3.03q-4.923,2.961-1.983,7.986c.91,1.562,1.892,3.084,2.728,4.682a2.575,2.575,0,0,1-.975,3.5,2.643,2.643,0,0,1-3.531-.884,10.215,10.215,0,0,1-.986-1.645c-.4-.858-.916-.986-1.8-.686-2.979,1.012-6.158,1.2-8.868-.284-5.649-3.09-11.224-2.768-16.963-.616-.379.143-.8.188-1.184.3-3.508.988-5.271,3.206-5.352,6.839-.052,2.391-.011,4.783-.011,7.175,0,1.429,0,2.859,0,4.326,2.251.232,4-.453,5.025-1.988a12.685,12.685,0,0,0,1.728-4.622c.466-2.423,2.071-3.371,4.268-2.211.36.19.707.407,1.057.616q16.546,9.8,33.1,19.571a2.674,2.674,0,0,0,1.977.36A18.062,18.062,0,0,0,2514.672,1818.749Zm-111.5-5.156c1.807,1.071,3.441,2.052,5.087,3.015,3.471,2.031,6.058,1.4,8.094-2.023q4.968-8.336,9.9-16.691c2.407-4.061,4.832-8.109,7.2-12.191,1.359-2.342,1.32-4.735-.517-6.242a72.961,72.961,0,0,0-6.88-4.508C2418.342,1787.982,2410.812,1800.7,2403.175,1813.593Zm41.022,14.3c-.127-1.944-.835-3.119-2.359-3.72a3.361,3.361,0,0,0-4.156,1.291c-2.381,3.23-4.711,6.5-7.034,9.772-1.436,2.023-1.219,4.187.476,5.406,1.758,1.265,3.789.833,5.277-1.206q3.445-4.722,6.8-9.51A12.758,12.758,0,0,0,2444.2,1827.893Zm6.4,3.022c-.872.5-2.008.8-2.568,1.533q-4.015,5.27-7.749,10.751a3.505,3.505,0,0,0,5.613,4.16c2.7-3.57,5.361-7.178,7.814-10.919C2455.2,1834.161,2453.43,1831.241,2450.6,1830.915Zm-27.395,3.4a8.156,8.156,0,0,0,2.47-1.387,51.663,51.663,0,0,0,4.071-5.639,3.51,3.51,0,0,0-5.716-4,49.081,49.081,0,0,0-3.949,5.516C2418.67,1831.154,2420.375,1834.013,2423.2,1834.318Zm37.8,11.47a10.024,10.024,0,0,0-2.007-2.373,2.774,2.774,0,0,0-3.7.381,28.047,28.047,0,0,0-3.551,4.917,3.014,3.014,0,0,0,.724,3.683,3.338,3.338,0,0,0,3.672.893C2457.763,1852.745,2460.958,1848.323,2461,1845.788Z" transform="translate(-2377.615 -1681.394)" fill="#fff"/>
          <path id="Tracé_13694" data-name="Tracé 13694" d="M2462.988,1552.9h-10.195c-1.981,0-3.964.027-5.946-.005-8.042-.133-13.71-5.782-13.823-13.843-.065-4.665-.013-9.332-.013-14v-2.126h-2.031q-38.486,0-76.97,0c-5.683,0-8.976,3.313-8.977,9.034q0,68.764,0,137.529c0,5.814,3.277,9.077,9.124,9.085q12.507.017,25.015,0c.526,0,1.054-.019,1.574.025a2.421,2.421,0,0,1,2.468,2.442,2.4,2.4,0,0,1-2.189,2.7,20.746,20.746,0,0,1-3.314.1q-11.808.01-23.616,0c-8.687-.02-14.325-5.661-14.329-14.358q-.011-68.764,0-137.529c0-8.716,5.624-14.3,14.362-14.3q38.658-.01,77.318-.024a12.125,12.125,0,0,1,9.076,3.749q12.012,12.111,24.115,24.131a11.778,11.778,0,0,1,3.629,8.773c-.038,14.407-.017,28.813-.017,43.219a6.674,6.674,0,0,1-.054,1.4,2.487,2.487,0,0,1-2.71,2.2,2.439,2.439,0,0,1-2.46-2.281,11.99,11.99,0,0,1-.037-1.746V1552.9Zm-4.543-5.464-19.926-19.937c0,4.366-.232,9.07.081,13.736a7.04,7.04,0,0,0,6.319,6.131C2449.482,1547.635,2454.076,1547.432,2458.445,1547.432Z" transform="translate(-2339.761 -1517.641)" fill="#640fa2"/>
          <path id="Tracé_13695" data-name="Tracé 13695" d="M2438.662,1706.646h-41.625a12.939,12.939,0,0,1-1.572-.028,2.459,2.459,0,0,1-2.328-2.422,2.431,2.431,0,0,1,1.85-2.642,5.855,5.855,0,0,1,1.726-.166q41.889-.011,83.779,0a5.971,5.971,0,0,1,1.893.207,2.59,2.59,0,0,1-.522,5.012,12.151,12.151,0,0,1-1.746.036Z" transform="translate(-2374.412 -1636.946)" fill="#640fa2"/>
          <path id="Tracé_13696" data-name="Tracé 13696" d="M2438.636,1655.21q20.814,0,41.626,0c.641,0,1.482-.193,1.878.131.777.638,1.781,1.563,1.806,2.4s-.913,1.836-1.666,2.489c-.427.369-1.333.238-2.026.238q-41.625.015-83.252.008c-.291,0-.583.009-.874,0-1.872-.068-3.071-1.107-3.071-2.656s1.185-2.6,3.079-2.6q11.717-.024,23.437-.008Z" transform="translate(-2374.367 -1606.931)" fill="#640fa2"/>
          <path id="Tracé_13697" data-name="Tracé 13697" d="M2417.185,1608.385q-10.133,0-20.269-.007a7.422,7.422,0,0,1-1.9-.18,2.563,2.563,0,0,1,.271-5,12.678,12.678,0,0,1,1.914-.1q20.007-.009,40.014,0c2.774,0,4.109.889,4.063,2.687-.045,1.754-1.333,2.6-4,2.6Q2427.233,1608.388,2417.185,1608.385Z" transform="translate(-2374.418 -1573.129)" fill="#640fa2"/>
          <path id="Tracé_13698" data-name="Tracé 13698" d="M2517.863,1840.119c4.939,2.927,9.74,5.775,14.543,8.62q9.85,5.836,19.705,11.661c1.563.92,2.447,2.179,2.11,4.029a3.1,3.1,0,0,1-2.951,2.769,5.931,5.931,0,0,1-3.09-.869c-7.152-4.16-14.255-8.4-21.375-12.616a13.37,13.37,0,0,0-1.365-.776,2.551,2.551,0,0,0-3.45,1.1,2.469,2.469,0,0,0,.826,3.388c.751.549,1.582.983,2.384,1.459q7.367,4.368,14.735,8.735c2.3,1.372,2.982,3.336,1.869,5.232-1.1,1.867-3.222,2.239-5.489.9-5.423-3.192-10.822-6.423-16.256-9.592-.726-.423-1.727-.952-2.39-.747a3.838,3.838,0,0,0-2.187,1.9c-.542,1.258.191,2.349,1.378,3.05q5.642,3.339,11.276,6.685c.453.268.92.511,1.355.8a3.6,3.6,0,0,1,1.282,5.009,3.519,3.519,0,0,1-4.913,1.108c-3.586-2.058-7.126-4.2-10.687-6.308-2.417-1.431-3.956-1.38-4.876.16s-.244,2.929,2.173,4.364c1.2.715,2.424,1.4,3.6,2.151a3.574,3.574,0,0,1,1.467,4.952,3.51,3.51,0,0,1-5,1.2c-1.924-1.069-3.793-2.236-5.669-3.352,2.778-5.777.774-11.566-5.86-13.708,1.6-6.306-2.375-12.125-9.756-11.887-2.018-6.987-9.222-9.4-15.128-4.73-1.98-2.757-4.6-4.429-8.1-4.184a30.583,30.583,0,0,0-3.375.788,13.534,13.534,0,0,1-2.167.019c5.719-9.66,11.176-18.875,16.6-28.041a48.024,48.024,0,0,0,5.309,1.828,13.846,13.846,0,0,0,8.523-1.1c1.77-.746,3.579-1.409,5.409-1.984a6.812,6.812,0,0,1,5.745.74c-3.171,3.46-3.042,7.685-2.969,11.909.039,2.39-.027,4.783.015,7.175.067,3.836,2.613,6.209,6.413,5.935C2512.515,1847.539,2515.783,1844.789,2517.863,1840.119Z" transform="translate(-2419.444 -1715.139)" fill="#640fa2"/>
          <path id="Tracé_13699" data-name="Tracé 13699" d="M2637.753,1828.471a18.133,18.133,0,0,1-2.961,1.785,2.689,2.689,0,0,1-1.979-.361q-16.57-9.747-33.1-19.572c-.349-.207-.7-.424-1.056-.615-2.2-1.159-3.8-.213-4.27,2.212a12.649,12.649,0,0,1-1.726,4.623c-1.029,1.535-2.777,2.22-5.025,1.988,0-1.468,0-2.9,0-4.328,0-2.39-.041-4.784.012-7.175.079-3.632,1.843-5.851,5.351-6.838.39-.111.806-.158,1.183-.3,5.742-2.151,11.315-2.473,16.964.617,2.712,1.484,5.89,1.3,8.868.283.884-.3,1.405-.171,1.8.686a10.282,10.282,0,0,0,.987,1.647,2.645,2.645,0,0,0,3.532.884,2.578,2.578,0,0,0,.975-3.5c-.837-1.6-1.819-3.121-2.729-4.681q-2.929-5.03,1.985-7.987c1.685-1.013,3.392-1.99,5.165-3.029.375.565.681.981.945,1.423q10.515,17.747,21.049,35.484c.724,1.217.754,1.882-.612,2.542s-2.607,1.539-3.921,2.293c-3.032,1.74-5.788,1.025-7.6-2.005-2.541-4.251-5.03-8.533-7.582-12.78-.378-.63-.9-1.511-1.468-1.61a4.4,4.4,0,0,0-3.007.4c-1.2.842-1.029,2.238-.3,3.464q3.778,6.4,7.575,12.785C2637.094,1827.3,2637.371,1827.8,2637.753,1828.471Z" transform="translate(-2500.697 -1691.115)" fill="#640fa2"/>
          <path id="Tracé_13700" data-name="Tracé 13700" d="M2412.643,1823.063c7.636-12.894,15.167-25.611,22.884-38.638a73.195,73.195,0,0,1,6.877,4.508c1.839,1.506,1.876,3.9.517,6.24-2.37,4.081-4.795,8.132-7.2,12.192q-4.945,8.346-9.9,16.689c-2.037,3.42-4.625,4.057-8.094,2.024C2416.084,1825.116,2414.45,1824.135,2412.643,1823.063Z" transform="translate(-2387.084 -1690.866)" fill="#640fa2"/>
          <path id="Tracé_13701" data-name="Tracé 13701" d="M2502.775,1928a12.569,12.569,0,0,1-1,2.034q-3.35,4.791-6.8,9.51c-1.488,2.04-3.516,2.471-5.275,1.206-1.7-1.218-1.912-3.384-.478-5.406,2.323-3.274,4.654-6.543,7.034-9.772a3.364,3.364,0,0,1,4.159-1.292C2501.938,1924.878,2502.646,1926.052,2502.775,1928Z" transform="translate(-2436.193 -1781.497)" fill="#640fa2"/>
          <path id="Tracé_13702" data-name="Tracé 13702" d="M2527.709,1944c2.835.326,4.608,3.247,3.112,5.527-2.453,3.739-5.116,7.349-7.814,10.918a3.5,3.5,0,0,1-5.612-4.16q3.74-5.468,7.747-10.751C2525.7,1944.8,2526.838,1944.5,2527.709,1944Z" transform="translate(-2454.728 -1794.48)" fill="#640fa2"/>
          <path id="Tracé_13703" data-name="Tracé 13703" d="M2463.039,1931.035c-2.829-.3-4.533-3.163-3.123-5.506a48.381,48.381,0,0,1,3.949-5.516,3.51,3.51,0,0,1,5.716,4,51.575,51.575,0,0,1-4.074,5.638A8.091,8.091,0,0,1,2463.039,1931.035Z" transform="translate(-2417.451 -1778.113)" fill="#640fa2"/>
          <path id="Tracé_13704" data-name="Tracé 13704" d="M2559.744,1981.031c-.042,2.536-3.236,6.957-4.855,7.5a3.344,3.344,0,0,1-3.676-.894,3.024,3.024,0,0,1-.723-3.683,28.322,28.322,0,0,1,3.553-4.918,2.776,2.776,0,0,1,3.7-.38A10.015,10.015,0,0,1,2559.744,1981.031Z" transform="translate(-2476.359 -1816.639)" fill="#640fa2"/>
          <path id="Tracé_13705" data-name="Tracé 13705" d="M2641.14,1565.681c-4.372,0-8.961.2-13.526-.071a7.038,7.038,0,0,1-6.317-6.131c-.314-4.667-.083-9.37-.083-13.735C2627.761,1552.294,2634.482,1559.017,2641.14,1565.681Z" transform="translate(-2522.458 -1535.888)" fill="#fff"/>
        </g>
      </g>
    </g>
  </g>
</svg>
