<svg xmlns="http://www.w3.org/2000/svg" xmlns:xlink="http://www.w3.org/1999/xlink" width="118" height="150" viewBox="0 0 118 150">
  <defs>
    <clipPath id="clip-Web_1920_2">
      <rect width="118" height="150"/>
    </clipPath>
  </defs>
  <g id="Web_1920_2" data-name="Web 1920 – 2" clip-path="url(#clip-Web_1920_2)">
    <g id="Groupe_1" data-name="Groupe 1" transform="translate(-318.012 -650.414)">
      <path id="Tracé_25574" data-name="Tracé 25574" d="M444.082,724.885l.2-1.041c-1.527-.446-2.994-.926-4.489-1.291-.749-.183-.95-.527-.948-1.272q.035-15.789.015-31.579,0-15.119,0-30.238c0-4.137,2.64-6.789,6.751-6.789q32.353,0,64.707,0c4.321,0,6.932,2.618,6.932,6.945q0,33.333.019,66.666a1.326,1.326,0,0,1-.986,1.5c-4.174,1.592-8.314,3.273-12.485,4.871a3.23,3.23,0,0,1-1.776.123c-6.8-1.564-13.566-3.274-20.389-4.719a77.944,77.944,0,0,0-7.792-.715,7.4,7.4,0,0,1-2.5-.732,14.68,14.68,0,0,0-7.1-1.776C457.576,724.973,450.9,724.885,444.082,724.885Zm33.907-53.205v-.008q13.568,0,27.136-.006a6.282,6.282,0,0,0,1.632-.152,3.8,3.8,0,0,0,2.748-4.185A3.9,3.9,0,0,0,505.327,664q-27.291,0-54.581,0a3.856,3.856,0,1,0,0,7.677Zm.216,36.011H452.926c-.963,0-1.93-.055-2.887.022a3.789,3.789,0,0,0-3.006,5.653,3.894,3.894,0,0,0,3.7,1.99q27.29-.006,54.58-.005a6.04,6.04,0,0,0,1.026-.076,3.822,3.822,0,0,0-.9-7.582Q491.823,707.679,478.2,707.691Zm-.1-6.913v.009q7.635,0,15.27,0c4.127,0,8.254.015,12.381-.018a3.773,3.773,0,0,0,3.778-3.724,3.835,3.835,0,0,0-3.594-3.921c-.445-.035-.894-.021-1.341-.021l-53.652.006c-.275,0-.552-.01-.825.014a3.873,3.873,0,0,0-3.412,2.726,3.811,3.811,0,0,0,3.846,4.924Q464.327,700.79,478.1,700.778Zm-.05-14.532q13.522,0,27.044,0a7.4,7.4,0,0,0,1.232-.076,3.8,3.8,0,0,0,3.192-3.431,3.738,3.738,0,0,0-2.574-3.908,6.324,6.324,0,0,0-1.927-.236q-26.993-.018-53.985-.01c-.275,0-.551-.007-.826.006a3.8,3.8,0,0,0-3.606,3.125,3.707,3.707,0,0,0,2.2,4.123,6.347,6.347,0,0,0,2.308.4Q464.58,686.269,478.05,686.245Z" transform="translate(-94.13 0)" fill="#590e9d"/>
      <path id="Tracé_25575" data-name="Tracé 25575" d="M447.66,1050.109l2.521-13.142c.389-2.025.747-4.058,1.184-6.073a1.8,1.8,0,0,0-.569-1.917c-2.2-2.011-4.375-4.054-6.636-6.156a47.935,47.935,0,0,1,6.373.541c6.685,1.444,13.332,3.067,19.983,4.665a1.68,1.68,0,0,1,1.052.89q5.484,15.888,10.887,31.8c.032.095.045.2.091.4l-7.787,3.152c-1.279-2.715-2.982-5.059-6.324-4.357-2.76.58-5.151,1.991-5.772,5.264-2.1-2.192-4.471-2.888-7.217-1.531a5.829,5.829,0,0,0-3.464,6.492,5.841,5.841,0,0,0-6.1-.209,5.956,5.956,0,0,0-3.313,5.129,5.947,5.947,0,0,0-7.753,1.124,5.344,5.344,0,0,0-1.01,6.3,4.309,4.309,0,0,1-4.95-1.163,4.448,4.448,0,0,1-.425-5.532,6.311,6.311,0,0,1,2.255-1.864c6.552-3.19,13.141-6.3,19.713-9.451.616-.3,1.6-.5,1.167-1.47-.473-1.059-1.281-.383-1.925-.077q-11.733,5.583-23.456,11.187a4.574,4.574,0,0,1-5.054-.419,4.368,4.368,0,0,1-1.716-4.476,4.644,4.644,0,0,1,2.879-3.511q10.574-5.019,21.13-10.076a4.911,4.911,0,0,0,.558-.267c.421-.271,1.265-.333.917-1.083s-.958-.194-1.409.02q-12.9,6.135-25.786,12.291c-3.072,1.462-6.246-.058-6.847-3.255a4.626,4.626,0,0,1,2.843-5.077q9.77-4.667,19.545-9.325,2.141-1.022,4.28-2.046c.5-.24,1.119-.488.806-1.195-.34-.766-.938-.461-1.486-.19q-13.263,6.565-26.535,13.112a6.462,6.462,0,0,1-2.141.672,4.588,4.588,0,0,1-2.489-8.678c3.3-1.627,6.636-3.174,9.951-4.768,5.234-2.517,10.581-4.819,15.479-7.978a25.523,25.523,0,0,0,2.707-2.326,4.587,4.587,0,0,1,.935-.763,3.857,3.857,0,0,1,4.267.819,1.535,1.535,0,0,1,.222.849,24.653,24.653,0,0,0,1.871,8A9.31,9.31,0,0,0,447.66,1050.109Z" transform="translate(-65.782 -293.729)" fill="#590e9d"/>
      <path id="Tracé_25576" data-name="Tracé 25576" d="M451.251,1037.633a7.058,7.058,0,0,1-3.438-3.182,19.325,19.325,0,0,1-2.287-8.9,2.227,2.227,0,0,0-1.148-1.92c-2.149-1.559-4.026-1.324-6.368-.181-9.017,4.4-18.152,8.563-27.243,12.813-.34.159-.686.307-1.272.568.177-.553.281-.92.409-1.278q3.923-10.969,7.846-21.94a25.512,25.512,0,0,0,.767-2.568c.157-.65.483-.843,1.149-.836,5.538.054,11.077.073,16.616.092q1.7.006,3.4-.069a10.6,10.6,0,0,1,5.748,1.736,39.858,39.858,0,0,1,8.992,7.356,1.182,1.182,0,0,1,.256.9q-1.6,8.565-3.264,17.119A1.522,1.522,0,0,1,451.251,1037.633Z" transform="translate(-70.843 -283.718)" fill="#590e9d"/>
      <path id="Tracé_25577" data-name="Tracé 25577" d="M346.162,987.118l-12.52,34.054-13.421-5.709,11.616-32.506Zm-16.646,20.074a3.672,3.672,0,1,0,3.7,3.656A3.671,3.671,0,0,0,329.516,1007.192Z" transform="translate(0 -262.094)" fill="#590e9d"/>
      <path id="Tracé_25578" data-name="Tracé 25578" d="M759.43,1058.422l-10.414-32.912,13.921-5.349c3.548,11.575,7.078,23.086,10.635,34.69Zm8.333-9.318a3.692,3.692,0,1,0-3.664,3.724A3.756,3.756,0,0,0,767.762,1049.1Z" transform="translate(-340.269 -291.618)" fill="#590e9d"/>
      <path id="Tracé_25579" data-name="Tracé 25579" d="M656.234,1241.72a3.888,3.888,0,0,1-3.328-1.985c-1.28-2.116-2.528-4.253-3.714-6.422-1.234-2.258-.394-4.685,1.995-6.015a4.271,4.271,0,0,1,6.063,1.55c1.148,1.954,2.269,3.925,3.4,5.888C662.858,1238.551,659.546,1241.671,656.234,1241.72Z" transform="translate(-260.605 -455.466)" fill="#590e9d"/>
      <path id="Tracé_25580" data-name="Tracé 25580" d="M565.875,1295.442a4.124,4.124,0,0,1-3.43-2.055c-1.211-2.039-2.407-4.089-3.552-6.166a4.526,4.526,0,0,1,7.824-4.5c1.17,1.943,2.279,3.924,3.417,5.886C572.251,1292.254,569.084,1295.353,565.875,1295.442Z" transform="translate(-188.937 -498.303)" fill="#590e9d"/>
      <path id="Tracé_25581" data-name="Tracé 25581" d="M603.186,1261.077a4.873,4.873,0,0,1,3.782-4.365,4.118,4.118,0,0,1,4.7,1.914c1.219,2.034,2.413,4.084,3.558,6.161a4.529,4.529,0,0,1-7.841,4.484c-1.205-2-2.376-4.027-3.494-6.079A12.3,12.3,0,0,1,603.186,1261.077Z" transform="translate(-224.546 -479.209)" fill="#590e9d"/>
      <path id="Tracé_25582" data-name="Tracé 25582" d="M705.568,1211.16c1.95.048,3.065.626,3.8,1.838.763,1.261,1.51,2.535,2.212,3.831a3.74,3.74,0,0,1-1.362,5.111c-.465.291-.941.566-1.423.827a3.768,3.768,0,0,1-5.251-1.427q-1.006-1.675-1.952-3.388c-1.267-2.295-.748-4.293,1.5-5.6C704.019,1211.817,705.028,1211.417,705.568,1211.16Z" transform="translate(-302.097 -443.185)" fill="#590e9d"/>
    </g>
  </g>
</svg>
