<svg xmlns="http://www.w3.org/2000/svg" xmlns:xlink="http://www.w3.org/1999/xlink" width="35" height="35" viewBox="0 0 118 150">
  <defs>
    <clipPath id="clip-Web_1920_1">
      <rect width="118" height="150"/>
    </clipPath>
  </defs>
  <g id="Web_1920_1" data-name="Web 1920 – 1" clip-path="url(#clip-Web_1920_1)">
    <path id="Tracé_1" data-name="Tracé 1" d="M84,634.033V515.221c.751-2.653,1.725-5.266,4.061-6.876a43.585,43.585,0,0,1,5.659-2.844h63.186c.8.7,1.646,1.359,2.4,2.109q13.153,13.124,26.275,26.278c.75.752,1.409,1.595,2.111,2.4v97.479c-.116.422-.229.844-.348,1.266a11.526,11.526,0,0,1-7.373,8.073c-.655.248-1.333.437-2,.653H93.721c-.326-.114-.648-.243-.979-.338a11.52,11.52,0,0,1-8.209-7.76C84.35,635.116,84.177,634.574,84,634.033Zm51.987-65.144H105.5c-.494,0-.991-.014-1.483.022a2.835,2.835,0,0,0-2.726,2.795,2.89,2.89,0,0,0,2.643,2.9,11.611,11.611,0,0,0,1.213.021h61.377a11.994,11.994,0,0,0,1.213-.02,2.892,2.892,0,0,0,2.661-2.884,2.839,2.839,0,0,0-2.712-2.809c-.492-.037-.989-.023-1.483-.023Zm-.279,23.02q15.378,0,30.756,0a9.888,9.888,0,0,0,1.481-.043,2.883,2.883,0,0,0,2.452-2.934,2.829,2.829,0,0,0-2.65-2.731c-.447-.039-.9-.027-1.348-.027q-30.554,0-61.108,0a13.622,13.622,0,0,0-1.482.041,2.827,2.827,0,0,0-2.5,2.444,2.775,2.775,0,0,0,1.8,3,5.728,5.728,0,0,0,1.848.244Q120.33,591.92,135.707,591.909Zm-.018,17.282h30.756c.4,0,.811.02,1.214-.014a2.889,2.889,0,0,0,2.738-2.946,2.842,2.842,0,0,0-2.766-2.758c-.4-.028-.809-.018-1.214-.018q-30.554,0-61.108,0a14.044,14.044,0,0,0-1.482.039,2.828,2.828,0,0,0-2.517,2.428,2.766,2.766,0,0,0,1.778,3.006,6.194,6.194,0,0,0,1.981.252Q120.379,609.2,135.69,609.19Zm-28.752-51.847c.1.33.162.544.235.754a2.878,2.878,0,0,0,2.927,2.116,2.745,2.745,0,0,0,2.617-2.469,1.748,1.748,0,0,1,1.173-1.435,8.57,8.57,0,0,0-2.334-16.062c-.613-.124-1.249-.127-1.872-.2a2.906,2.906,0,0,1-2.638-2.916,2.847,2.847,0,0,1,2.754-2.777c.672-.045,1.349-.019,2.024-.025,1.349-.011,2.7.056,4.046-.055a2.815,2.815,0,0,0,2.684-2.851,2.862,2.862,0,0,0-2.686-2.859,11.63,11.63,0,0,0-2.021-.031,1.042,1.042,0,0,1-1.239-.877,2.679,2.679,0,0,0-3.014-1.936,2.93,2.93,0,0,0-2.535,2.429,2.212,2.212,0,0,1-.9,1.273,8.622,8.622,0,0,0,3.341,16.369,5.537,5.537,0,0,1,1.578.31,2.865,2.865,0,0,1-1.185,5.48c-1.887.076-3.779,0-5.667.044a2.832,2.832,0,0,0-2.937,2.864,2.9,2.9,0,0,0,2.978,2.85C105.12,557.368,105.974,557.343,106.937,557.343Zm14.6,69.129c5.62,0,11.24.012,16.86-.006,2.063-.007,3.313-1.3,3.154-3.171-.139-1.63-1.316-2.552-3.346-2.556q-11.128-.015-22.255,0c-3.822,0-7.643.014-11.465-.006a2.952,2.952,0,0,0-2.829,1.475c-1.124,1.974.319,4.245,2.752,4.259C110.118,626.492,115.828,626.471,121.537,626.471Zm28.752-74.864q-6.879,0-13.757,0c-1.259,0-2.52-.036-3.775.036a2.7,2.7,0,0,0-2.63,2.711,2.826,2.826,0,0,0,2.545,2.962,10.1,10.1,0,0,0,1.212.027q16.32,0,32.64,0c.4,0,.812.02,1.213-.02a2.892,2.892,0,0,0,2.661-2.883,2.839,2.839,0,0,0-2.711-2.811c-.447-.035-.9-.022-1.348-.023Zm8.576-35.727v.885c0,3.735-.013,7.47,0,11.205.018,4,2.388,6.338,6.424,6.352,3.69.013,7.38.005,11.07,0,.378,0,.756-.052.882-.061Z" transform="translate(-80 -498.464)" />
  </g>
</svg>
