<svg id="changeColor" fill="#59049D" xmlns="http://www.w3.org/2000/svg" xmlns:xlink="http://www.w3.org/1999/xlink" 
width="35" zoomAndPan="magnify" viewBox="0 0 375 374.9999" height="35" preserveAspectRatio="xMidYMid meet" version="1.0">
<defs>
<path id="pathAttribute" d="M 7.09375 7.09375 L 367.84375 7.09375 L 367.84375 367.84375 L 7.09375 367.84375 Z M 7.09375 7.09375 ">
</path></defs><g><path id="pathAttribute" d="M 187.46875 7.09375 C 87.851562 7.09375 7.09375 87.851562 7.09375 187.46875 C 7.09375 287.085938 87.851562 367.84375 187.46875 367.84375 C 287.085938 367.84375 367.84375 287.085938 367.84375 187.46875 C 367.84375 87.851562 287.085938 7.09375 187.46875 7.09375 " fill-opacity="1" fill-rule="nonzero"></path></g><g id="inner-icon" transform="translate(85, 75)"> <svg xmlns="http://www.w3.org/2000/svg" width="199.8" height="199.8" fill="#fff" class="bi bi-power" viewBox="0 0 16 16" id="IconChangeColor"> <path d="M7.5 1v7h1V1h-1z" id="mainIconPathAttribute"></path> <path d="M3 8.812a4.999 4.999 0 0 1 2.578-4.375l-.485-.874A6 6 0 1 0 11 3.616l-.501.865A5 5 0 1 1 3 8.812z" id="mainIconPathAttribute"></path> </svg> </g>
</svg>