<svg xmlns="http://www.w3.org/2000/svg" xmlns:xlink="http://www.w3.org/1999/xlink" width="103.14" height="103.14" viewBox="0 0 103.14 103.14">
  <defs>
    <linearGradient id="linear-gradient" y1="0.5" x2="1" y2="0.5" gradientUnits="objectBoundingBox">
      <stop offset="0" stop-color="#ffea3f"/>
      <stop offset="1" stop-color="#fac156"/>
    </linearGradient>
    <linearGradient id="linear-gradient-2" y1="0.5" x2="1" y2="0.5" gradientUnits="objectBoundingBox">
      <stop offset="0" stop-color="#fce000"/>
      <stop offset="1" stop-color="#fac156"/>
    </linearGradient>
  </defs>
  <g id="Group_2" data-name="Group 2" transform="translate(-997 -1899)">
    <g id="Group_1" data-name="Group 1">
      <g id="Layer_2" data-name="Layer 2" transform="translate(999.885 1901.359)">
        <g id="Speech_Bubble" data-name="Speech Bubble">
          <path id="Path_1" data-name="Path 1" d="M0,29.53V67.84A29.54,29.54,0,0,0,29.53,97.38H67.84A29.55,29.55,0,0,0,97.38,67.84V29.53A29.54,29.54,0,0,0,67.84,0H29.53A29.53,29.53,0,0,0,0,29.53ZM48.69,88.16A39.47,39.47,0,1,1,88.16,48.69,39.47,39.47,0,0,1,48.69,88.16Z" fill="url(#linear-gradient)"/>
          <path id="Path_2" data-name="Path 2" d="M3.31,30.84v35.7A27.52,27.52,0,0,0,30.84,94.06h35.7A27.52,27.52,0,0,0,94.06,66.54V30.84A27.52,27.52,0,0,0,66.54,3.31H30.84A27.52,27.52,0,0,0,3.31,30.84ZM48.69,85.47A36.79,36.79,0,1,1,85.47,48.687,36.79,36.79,0,0,1,48.69,85.47Z" fill="url(#linear-gradient-2)"/>
          <circle id="Ellipse_1" data-name="Ellipse 1" cx="39.47" cy="39.47" r="39.47" transform="translate(-2.885 27.85) rotate(-22.5)" fill="#fff"/>
          <path id="Path_3" data-name="Path 3" d="M43.12,52.23a16.25,16.25,0,0,1,1.82-3.89l-.07.07a27.361,27.361,0,0,1,2-2.81l.49-.63a37.27,37.27,0,0,0,2.73-4A6.09,6.09,0,0,0,51,38a2.78,2.78,0,0,0-2-2.73,3.45,3.45,0,0,0-1-.21,1.7,1.7,0,0,0-1.26.49,10,10,0,0,0-1.19,1.54,5.049,5.049,0,0,0-.49.67,4.12,4.12,0,0,1-.77.87,2.38,2.38,0,0,1-.91.49q-1.83.15-3.3.15a29.061,29.061,0,0,1-3.29-.15L35,38.94l-1.89-.21a15.25,15.25,0,0,1,2.39-7.28,17.1,17.1,0,0,1,5.81-5.72,14.9,14.9,0,0,1,7.85-2.2,17.1,17.1,0,0,1,7.54,1.68,14.21,14.21,0,0,1,5.54,4.62,11.27,11.27,0,0,1,2.06,6.59,14.12,14.12,0,0,1-3.57,8.9l-2.24,2.6a22.07,22.07,0,0,0-2,2.24,15.88,15.88,0,0,0-1.92,3.68,31.341,31.341,0,0,0-1.3,4.73l-.07.21a4.44,4.44,0,0,0-.28,1.33,3.45,3.45,0,0,0,.21,1,23.3,23.3,0,0,1-3,.28,29.44,29.44,0,0,1-3,0H42.55A1.84,1.84,0,0,1,42,60.6a4.39,4.39,0,0,1-.11-1.05l.14-2.73a41,41,0,0,1,1.09-4.59ZM41.78,69.85l.07-1.68v-1.4l.07-.84v-.7a15.18,15.18,0,0,1,5.82-.84c2.52,0,4.11.16,4.77.49a1.27,1.27,0,0,1,.14.42,4.49,4.49,0,0,1,.07.77,22.23,22.23,0,0,1-.14,2.52l-.42,5.26-10.1-.07a25,25,0,0,1-.28-3.93Z" fill="#171400" stroke="#000" stroke-miterlimit="10" stroke-width="1"/>
        </g>
      </g>
    </g>
  </g>
</svg>
